<svg version="1.2" xmlns="http://www.w3.org/2000/svg" viewBox="0 0 1280 1280" width="1280" height="1280">
	<title>Hotdog</title>
	<style>
		.s0 { fill: #000000 } 
	</style>
	<path id="Shape 3" fill-rule="evenodd" class="s0" d="m646.4 1145.5c-279.9 0-506.2-228.2-506.2-510.5 0-282.4 226.3-510.6 506.2-510.6 280 0 506.2 228.2 506.2 510.6 0 282.3-226.2 510.5-506.2 510.5zm560.6-493.5c0-304.2-244.7-550-547.5-550-302.8 0-547.5 245.8-547.5 550 0 304.2 244.7 550 547.5 550 302.8 0 547.5-245.8 547.5-550z"/>
	<path id="Shape 1" fill-rule="evenodd" class="s0" d="m195.5 887.9c136.9-131.9 193.9-27.7 392.6-207.3 263.7-238.4 223.8-350.2 287.9-466.7 61.5-178.1 320.3-95 308.7 58.1-11.6 153.4-75.4 302.4-303.2 558.1-348.2 390.7-463.2 358.8-518.8 366.7-165.4 23.8-304.1-176.9-167.2-308.9zm788.2-667.8q0 0-0.4 0 0.2 0 0.4 0zm-0.4 0c-47.1 0.8-88.1-23.2-123.7 71.5-16.4 43.7 68.3 110.6 47.5 134.3-47 53.4-85.7-16.9-138.8 64.6-39.1 60 30.6 119.8 11.4 137.7-53.4 49.7-90.4-26.5-161.7 40.4-35.4 33.3 3 108.2-36.5 129.5-15.8 8.5-58.7-53.5-152.1 8.6-97.5 64.9-43.4 187.7-43.4 187.7 0 0-15.8-105.2 52.7-161.6 68.4-56.5 119.7 25.3 188.9-20.3 69.3-45.5-36.9-82.8 12.9-132.5 49.8-49.8 91.4 24.6 151.1-38.1 59.6-62.6-46.6-73.1-0.1-144.6 46.4-71.5 99.2-6.7 146.3-70.8 36.3-49.2-81.3-63-43.9-144.9 26.6-58.5 84-61.4 89.4-61.5z"/>
</svg>