# Blender 3.4.1
# www.blender.org
mtllib desk.mtl
o Desk
v -31.227585 -1.052424 -54.962296
v -34.219704 1.939694 -54.962296
v -34.219704 1.939694 39.941521
v -31.227585 -1.052424 39.941521
v -35.392921 -1.332613 39.941521
v -36.000000 -1.939694 39.334442
v -35.392921 1.939694 39.941521
v -36.000000 1.939694 39.334442
v -35.392921 -1.332613 -54.962296
v -36.000000 -1.939694 -54.355217
v -36.000000 1.939694 -54.355217
v -35.392921 1.939694 -54.962296
v 35.392921 -0.264429 39.941521
v 36.000000 -0.324226 39.334442
v 34.324738 -1.332613 39.941521
v 34.384533 -1.939694 39.334442
v -31.227585 -1.332613 -54.962296
v -31.227585 -1.939694 -54.355217
v -31.227585 -1.939694 39.334442
v -31.227585 -1.332613 39.941521
v -35.392921 10.725212 39.941521
v -36.000000 11.332293 39.334442
v -35.392921 10.725212 -54.962296
v -36.000000 11.332293 -54.355217
v -31.781973 4.377424 -54.962296
v -31.227585 4.931812 -54.355217
v -28.235466 1.939694 -54.355217
v -28.789856 1.385306 -54.962296
v -30.999821 3.786778 -54.355217
v -31.634233 3.643526 -54.962296
v -30.351212 2.816065 -54.355217
v -30.788893 2.378384 -54.962296
v -29.380501 2.167456 -54.355217
v -29.523754 1.533045 -54.962296
v -28.789856 1.385306 39.941521
v -28.235466 1.939694 39.334442
v -31.227585 4.931812 39.334442
v -31.781973 4.377424 39.941521
v -29.380501 2.167456 39.334442
v -29.523754 1.533045 39.941521
v -30.351212 2.816065 39.334442
v -30.788893 2.378384 39.941521
v -30.999821 3.786778 39.334442
v -31.634233 3.643526 39.941521
v 35.392921 0.264429 39.941521
v 36.000000 0.324226 39.334442
v 34.070026 1.383279 39.941521
v 34.384533 1.939694 39.334442
v 35.305172 0.705568 39.941521
v 35.877029 0.942439 39.334442
v 35.089157 1.028853 39.941521
v 35.526836 1.466534 39.334442
v 34.765869 1.244867 39.941521
v 35.002743 1.816724 39.334442
v 34.070026 1.383279 -54.962296
v 34.384533 1.939694 -54.355217
v 35.392921 0.264429 -54.962296
v 36.000000 0.324226 -54.355217
v 34.765869 1.244867 -54.962296
v 35.002743 1.816724 -54.355217
v 35.089157 1.028853 -54.962296
v 35.526836 1.466534 -54.355217
v 35.305172 0.705568 -54.962296
v 35.877029 0.942439 -54.355217
v 34.765869 -1.244867 39.941521
v 35.002743 -1.816724 39.334442
v 35.089157 -1.028853 39.941521
v 35.526836 -1.466534 39.334442
v 35.305172 -0.705568 39.941521
v 35.877029 -0.942439 39.334442
v 35.392921 -0.264429 -54.962296
v 36.000000 -0.324226 -54.355217
v 34.324738 -1.332613 -54.962296
v 34.384533 -1.939694 -54.355217
v 35.305172 -0.705568 -54.962296
v 35.877029 -0.942439 -54.355217
v 35.089157 -1.028853 -54.962296
v 35.526836 -1.466534 -54.355217
v 34.765869 -1.244867 -54.962296
v 35.002743 -1.816724 -54.355217
v -31.783998 10.586186 39.941521
v -31.227585 10.888313 39.334442
v -31.923023 10.725212 39.941521
v -31.671562 11.332293 39.334442
v -31.923025 10.725212 -54.962296
v -31.671562 11.332293 -54.355217
v -31.783998 10.586186 -54.962296
v -31.227585 10.888313 -54.355217
vn -0.0000 -0.0000 1.0000
vn -0.0000 1.0000 -0.0000
vn -0.0000 -1.0000 -0.0000
vn 0.0980 -0.9952 -0.0000
vn -0.0000 -0.0000 -1.0000
vn -1.0000 -0.0000 -0.0000
vn 0.9239 -0.3827 -0.0000
vn 0.9952 -0.0980 -0.0000
vn 0.3827 0.9239 -0.0000
vn 0.0980 0.9952 -0.0000
vn 0.9952 0.0980 -0.0000
vn 0.9239 0.3827 -0.0000
vn 1.0000 -0.0000 -0.0000
vn 0.7071 0.7071 -0.0000
vn 0.3827 -0.9239 -0.0000
vn 0.7071 -0.7071 -0.0000
vn -0.7071 -0.0000 0.7071
vn -0.7071 -0.0000 -0.7071
vn -0.0000 -0.7071 -0.7071
vn 0.4951 -0.4951 0.7139
vn 0.2680 -0.6469 0.7139
vn -0.0000 -0.7071 0.7071
vn -0.4082 0.4082 0.8165
vn -0.4082 0.4082 -0.8165
vn 0.7163 0.0457 -0.6963
vn 0.6313 0.2751 -0.7251
vn 0.6377 0.2543 -0.7271
vn 0.6931 0.0904 -0.7151
vn 0.4951 0.4951 -0.7139
vn 0.2751 0.6313 -0.7251
vn 0.2543 0.6377 -0.7271
vn 0.0456 0.7164 -0.6962
vn 0.0904 0.6931 -0.7151
vn 0.0456 0.7164 0.6962
vn 0.2751 0.6312 0.7251
vn 0.2543 0.6377 0.7271
vn 0.0904 0.6931 0.7151
vn 0.4951 0.4951 0.7139
vn 0.6313 0.2751 0.7251
vn 0.6377 0.2543 0.7271
vn 0.7163 0.0457 0.6963
vn 0.6931 0.0904 0.7151
vn 0.0691 -0.7020 0.7088
vn 0.0691 -0.7020 -0.7088
vn 0.2680 -0.6469 -0.7139
vn 0.2680 0.6469 -0.7139
vn 0.0566 0.7216 -0.6900
vn 0.0828 0.7132 -0.6961
vn 0.0566 0.7216 0.6900
vn 0.2680 0.6469 0.7139
vn 0.0828 0.7132 0.6961
vn 0.6469 0.2680 -0.7139
vn 0.6469 0.2680 0.7139
vn 0.7020 0.0691 -0.7088
vn 0.7020 0.0691 0.7088
vn 0.4951 -0.4951 -0.7139
vn 0.6469 -0.2680 0.7139
vn 0.6469 -0.2680 -0.7139
vn 0.7020 -0.0691 0.7088
vn 0.7020 -0.0691 -0.7088
vn 0.6489 0.2501 -0.7186
vn 0.2597 0.6269 -0.7345
vn 0.6371 0.2748 -0.7201
vn 0.2597 0.6269 0.7345
vn 0.6489 0.2501 0.7186
vn 0.6371 0.2748 0.7201
vt 0.001806 0.584239
vt 0.019218 0.566391
vt 0.260076 0.974637
vt 0.242665 0.956789
vt 0.241034 0.981635
vt 0.158879 0.573934
vt 0.163543 0.570124
vt 0.930043 0.417601
vt 0.260076 0.981635
vt 0.141624 0.571040
vt 0.930043 0.440176
vt 0.142381 0.566002
vt 0.000176 0.559393
vt 0.236019 0.985277
vt 0.240683 0.989089
vt 0.371177 0.417601
vt 0.371177 0.440176
vt 0.219516 0.993209
vt 0.019218 0.559393
vt 0.218759 0.988170
vt 0.247250 0.559393
vt 0.152270 0.994466
vt 0.371177 0.509856
vt 0.152946 0.999735
vt 0.241034 0.565764
vt 0.158419 0.988088
vt 0.930043 0.008023
vt 0.371177 0.495184
vt 0.163543 0.988965
vt 0.000176 0.584239
vt 0.234772 0.962116
vt 0.239797 0.961996
vt 0.371177 0.389830
vt 0.162654 0.597212
vt 0.930043 0.389830
vt 0.241034 0.956789
vt 0.157630 0.597092
vt 0.311201 0.981635
vt 0.094730 0.564505
vt 0.371177 0.983375
vt 0.930043 0.494833
vt 0.091154 0.559393
vt 0.070342 0.559393
vt 0.171855 0.994700
vt 0.930043 0.983375
vt 0.371177 0.494833
vt 0.168277 0.999814
vt 0.033403 0.580932
vt 0.201876 0.969361
vt 0.930043 0.919872
vt 0.197821 0.965409
vt 0.930043 0.892697
vt 0.211897 0.945596
vt 0.015992 0.598780
vt 0.216704 0.948486
vt 0.930043 0.913078
vt 0.203886 0.963036
vt 0.029133 0.581813
vt 0.205888 0.967771
vt 0.930043 0.906284
vt 0.208747 0.958600
vt 0.021770 0.586856
vt 0.212826 0.961808
vt 0.930043 0.899490
vt 0.211671 0.952625
vt 0.016851 0.594403
vt 0.217138 0.953094
vt 0.256850 0.942247
vt 0.139566 0.610714
vt 0.371177 0.892697
vt 0.134759 0.613604
vt 0.371177 0.919872
vt 0.120688 0.593794
vt 0.274262 0.960096
vt 0.124742 0.589843
vt 0.371177 0.899490
vt 0.134533 0.606576
vt 0.257710 0.946625
vt 0.139999 0.606108
vt 0.371177 0.906284
vt 0.131610 0.600603
vt 0.262629 0.954172
vt 0.135688 0.597396
vt 0.371177 0.913078
vt 0.126751 0.596167
vt 0.269991 0.959214
vt 0.128753 0.591432
vt 0.250328 0.559393
vt 0.149241 0.994492
vt 0.371177 0.513629
vt 0.148743 0.999824
vt 0.256839 0.567284
vt 0.142627 0.986754
vt 0.371177 0.528301
vt 0.137754 0.989250
vt 0.252895 0.559916
vt 0.146719 0.994004
vt 0.371177 0.517297
vt 0.144747 0.998911
vt 0.254776 0.561205
vt 0.144867 0.992750
vt 0.371177 0.520965
vt 0.141340 0.996652
vt 0.256033 0.563133
vt 0.143629 0.990851
vt 0.371177 0.524633
vt 0.138908 0.993275
vt 0.015980 0.973744
vt 0.219747 0.572413
vt 0.930043 0.528301
vt 0.214907 0.569961
vt 0.009469 0.981635
vt 0.226340 0.564688
vt 0.930043 0.513629
vt 0.225775 0.559393
vt 0.015174 0.977895
vt 0.220722 0.568326
vt 0.930043 0.524633
vt 0.216036 0.565983
vt 0.013917 0.979823
vt 0.221975 0.566423
vt 0.930043 0.520965
vt 0.218397 0.562615
vt 0.012036 0.981112
vt 0.223821 0.565178
vt 0.930043 0.517297
vt 0.221801 0.560317
vt 0.241545 0.563133
vt 0.157847 0.990706
vt 0.371177 0.498852
vt 0.162525 0.992942
vt 0.242802 0.561205
vt 0.156569 0.992608
vt 0.371177 0.502520
vt 0.160228 0.996361
vt 0.244683 0.559916
vt 0.154769 0.993914
vt 0.371177 0.506188
vt 0.156886 0.998721
vt 0.006392 0.981635
vt 0.229364 0.564726
vt 0.930043 0.509856
vt 0.229984 0.559403
vt 0.000176 0.975263
vt 0.235520 0.571118
vt 0.371177 0.008023
vt 0.930043 0.495184
vt 0.240683 0.570213
vt 0.003825 0.981112
vt 0.231880 0.565274
vt 0.930043 0.506188
vt 0.233964 0.560418
vt 0.001943 0.979823
vt 0.233699 0.566579
vt 0.930043 0.502520
vt 0.237313 0.562766
vt 0.000686 0.977895
vt 0.234934 0.568494
vt 0.930043 0.498852
vt 0.239653 0.566189
vt 0.310392 0.960108
vt 0.092387 0.583079
vt 0.371177 0.954533
vt 0.088984 0.586865
vt 0.311201 0.960937
vt 0.091766 0.582187
vt 0.371177 0.958187
vt 0.086769 0.583444
vt 0.070342 0.580091
vt 0.168892 0.977014
vt 0.930043 0.958187
vt 0.163894 0.975756
vt 0.069533 0.580920
vt 0.169513 0.976122
vt 0.930043 0.954533
vt 0.166110 0.972335
s 1
usemtl Material.001
f 20/36/1 4/4/1 3/3/1 7/9/1 5/5/1
f 86/171/2 24/45/2 22/40/2 84/167/2
f 18/33/3 74/146/4 16/27/4 19/35/3
f 7/9/1 3/3/1 38/74/1 81/161/1 83/165/1 21/38/1
f 25/48/5 2/2/5 12/19/5 23/43/5 85/169/5 87/173/5
f 6/8/6 8/11/6 11/17/6 10/16/6
f 70/138/7 76/151/7 72/142/8 14/23/8
f 33/64/9 39/76/9 36/70/10 27/52/10
f 25/48/5 30/58/5 32/62/5 34/66/5 28/54/5 1/1/5 2/2/5
f 11/17/6 8/11/6 22/41/6 24/46/6
f 17/30/5 1/1/5 28/54/5 55/108/5 59/116/5 61/120/5 63/124/5 57/112/5 71/140/5 75/149/5 77/153/5 79/157/5 73/144/5
f 26/50/11 37/72/11 43/84/12 29/56/12
f 64/126/12 50/98/12 46/90/11 58/114/11
f 37/72/11 26/50/11 88/175/13 82/163/13
f 31/60/14 41/80/14 39/76/9 33/64/9
f 35/68/1 40/78/1 42/82/1 44/86/1 38/74/1 3/3/1 4/4/1
f 56/110/10 27/52/10 36/70/10 48/94/10
f 16/28/4 74/147/4 80/159/15 66/130/15
f 62/122/14 52/102/14 50/98/12 64/126/12
f 66/130/15 80/159/15 78/155/16 68/134/16
f 60/118/9 54/106/9 52/102/14 62/122/14
f 56/110/10 48/94/10 54/106/9 60/118/9
f 29/56/12 43/84/12 41/80/14 31/60/14
f 68/134/16 78/155/16 76/151/7 70/138/7
f 86/171/14 84/167/14 82/163/14 88/175/14
f 72/142/8 58/114/11 46/90/11 14/23/8
f 15/25/1 65/128/1 67/132/1 69/136/1 13/21/1 45/88/1 49/96/1 51/100/1 53/104/1 47/92/1 35/68/1 4/4/1 20/36/1
f 9/13/5 12/19/5 2/2/5 1/1/5 17/30/5
f 5/6/17 7/10/17 8/12/17 6/7/17
f 12/20/18 9/14/18 10/15/18 11/18/18
f 18/32/19 10/15/19 9/14/19 17/31/19
f 67/133/20 65/129/21 66/131/21 68/135/20
f 6/7/22 19/34/22 20/37/22 5/6/22
f 7/10/17 21/39/23 22/42/23 8/12/17
f 23/44/24 12/20/18 11/18/18 24/47/24
f 26/51/25 29/57/26 30/59/27 25/49/28
f 29/57/26 31/61/29 32/63/29 30/59/27
f 31/61/29 33/65/30 34/67/31 32/63/29
f 33/65/30 27/53/32 28/55/33 34/67/31
f 36/71/34 39/77/35 40/79/36 35/69/37
f 39/77/35 41/81/38 42/83/38 40/79/36
f 41/81/38 43/85/39 44/87/40 42/83/38
f 43/85/39 37/73/41 38/75/42 44/87/40
f 65/129/21 15/26/43 16/29/43 66/131/21
f 73/145/44 79/158/45 80/160/45 74/148/44
f 59/117/46 55/109/47 56/111/48 60/119/46
f 47/93/49 53/105/50 54/107/50 48/95/51
f 61/121/29 59/117/46 60/119/46 62/123/29
f 53/105/50 51/101/38 52/103/38 54/107/50
f 63/125/52 61/121/29 62/123/29 64/127/52
f 51/101/38 49/97/53 50/99/53 52/103/38
f 57/113/54 63/125/52 64/127/52 58/115/54
f 49/97/53 45/89/55 46/91/55 50/99/53
f 55/109/47 28/55/33 27/53/32 56/111/48
f 35/69/37 47/93/49 48/95/51 36/71/34
f 79/158/45 77/154/56 78/156/56 80/160/45
f 69/137/57 67/133/20 68/135/20 70/139/57
f 77/154/56 75/150/58 76/152/58 78/156/56
f 13/22/59 69/137/57 70/139/57 14/24/59
f 75/150/58 71/141/60 72/143/60 76/152/58
f 71/141/60 57/113/54 58/115/54 72/143/60
f 45/89/55 13/22/59 14/24/59 46/91/55
f 17/31/19 73/145/44 74/148/44 18/32/19
f 15/26/43 20/37/22 19/34/22 16/29/43
f 87/174/61 85/170/62 86/172/62 88/176/63
f 83/166/64 81/162/65 82/164/66 84/168/64
f 37/73/41 82/164/66 81/162/65 38/75/42
f 84/168/64 22/42/23 21/39/23 83/166/64
f 85/170/62 23/44/24 24/47/24 86/172/62
f 25/49/28 87/174/61 88/176/63 26/51/25
f 10/16/3 18/33/3 19/35/3 6/8/3
